<?xml version="1.0" standalone="no"?>
<!DOCTYPE svg PUBLIC "-//W3C//DTD SVG 20010904//EN"
 "http://www.w3.org/TR/2001/REC-SVG-20010904/DTD/svg10.dtd">
<svg version="1.0" xmlns="http://www.w3.org/2000/svg"
 width="512.000000pt" height="512.000000pt" viewBox="0 0 512.000000 512.000000"
 preserveAspectRatio="xMidYMid meet">

<g transform="translate(0.000000,512.000000) scale(0.100000,-0.100000)"
fill="#000000" stroke="none">
<path d="M3759 4897 c-67 -45 -70 -143 -6 -191 26 -20 45 -21 263 -26 l234 -5
-212 -212 -213 -211 -90 65 c-360 261 -838 336 -1261 198 -242 -79 -471 -231
-630 -416 l-65 -76 -67 -7 c-612 -63 -1094 -508 -1228 -1136 -27 -128 -25
-411 4 -542 61 -278 180 -503 367 -697 122 -126 235 -209 390 -286 141 -70
255 -107 408 -132 l97 -16 0 -174 0 -173 -160 0 c-176 0 -211 -8 -248 -55 -26
-32 -29 -83 -7 -125 29 -57 43 -60 237 -60 l178 0 0 -160 c0 -168 5 -195 48
-233 48 -43 140 -26 175 32 14 24 17 57 17 195 l0 166 181 0 181 0 34 34 c27
27 34 42 34 75 0 51 -16 86 -49 108 -22 15 -54 19 -204 21 l-177 4 2 176 3
177 61 7 c213 23 515 146 651 263 83 71 34 208 -74 208 -29 0 -56 -12 -111
-48 -231 -149 -468 -211 -742 -193 -459 28 -876 353 -1019 794 -45 142 -56
215 -56 384 1 137 4 168 29 265 111 432 422 747 843 854 284 72 611 33 862
-105 204 -112 390 -310 485 -516 86 -186 110 -297 109 -513 0 -149 -3 -182
-26 -266 -31 -119 -69 -216 -115 -296 l-35 -61 -56 5 c-398 37 -761 293 -950
670 -120 240 -150 544 -81 801 25 91 25 129 0 169 -21 36 -82 60 -122 50 -68
-17 -97 -75 -135 -265 -23 -119 -23 -364 0 -487 112 -584 550 -1032 1130
-1157 145 -31 399 -31 544 0 284 61 520 189 723 392 208 208 340 459 397 755
25 132 23 378 -5 511 -44 208 -123 389 -237 549 -36 50 -65 92 -65 95 0 3 95
100 210 215 l210 210 0 -220 c0 -252 6 -276 73 -309 33 -16 45 -17 76 -7 20 6
48 22 62 37 l24 26 3 404 3 404 -35 37 -34 38 -399 3 -399 3 -35 -24z m-709
-562 c141 -13 329 -76 459 -154 591 -354 758 -1128 363 -1686 -147 -209 -355
-363 -599 -445 -50 -16 -98 -30 -106 -30 -11 0 -7 20 20 91 72 191 98 356 90
559 -3 74 -13 172 -22 218 -107 546 -521 976 -1054 1097 -57 13 -105 26 -107
28 -6 5 113 102 179 146 135 92 345 164 522 180 88 8 123 8 255 -4z"/>
</g>
</svg>
